<mxfile host="Electron" agent="Mozilla/5.0 (Windows NT 10.0; Win64; x64) AppleWebKit/537.36 (KHTML, like Gecko) draw.io/25.0.2 Chrome/128.0.6613.186 Electron/32.2.5 Safari/537.36" version="25.0.2" pages="5">
  <diagram name="Use Case Diagrams" id="1pAQ_6IwX_lAIrnfbHh6">
    <mxGraphModel dx="1114" dy="656" grid="1" gridSize="10" guides="1" tooltips="1" connect="1" arrows="1" fold="1" page="1" pageScale="1" pageWidth="850" pageHeight="1400" math="0" shadow="0">
      <root>
        <mxCell id="0" />
        <mxCell id="1" parent="0" />
        <mxCell id="WTzY3c__YsyZZa85z-_g-2" value="1. Use Cases and Use Cases Diagram&lt;div&gt;&lt;br&gt;&lt;/div&gt;&lt;div&gt;&lt;b&gt;Use Case Name: User Login&lt;/b&gt;&lt;/div&gt;&lt;div&gt;Actor: Leasing Office Staff&lt;/div&gt;&lt;div&gt;&lt;span style=&quot;background-color: initial;&quot;&gt;Description: Users&amp;nbsp;&lt;/span&gt;&lt;span style=&quot;background-color: initial;&quot;&gt;log in to the application using their username and password&lt;/span&gt;&lt;/div&gt;&lt;div&gt;&lt;span style=&quot;background-color: initial;&quot;&gt;&lt;br&gt;&lt;/span&gt;&lt;/div&gt;&lt;div&gt;&lt;b&gt;Use Case Name: Add to Pending Pickup List&amp;nbsp;&lt;/b&gt;&lt;/div&gt;&lt;div&gt;&lt;span style=&quot;background-color: initial;&quot;&gt;Actor: Staff&lt;/span&gt;&lt;/div&gt;&lt;div&gt;Description: Staff can search for resident listed on the package then select the correct Postal&amp;nbsp;&lt;/div&gt;&lt;div&gt;Delivery service, and add it to pending pickup list.&lt;/div&gt;&lt;div&gt;&lt;span style=&quot;background-color: initial;&quot;&gt;&lt;br&gt;&lt;/span&gt;&lt;/div&gt;&lt;div&gt;&lt;div&gt;&lt;b&gt;Use Case Name: Send Email Notification&lt;/b&gt;&lt;/div&gt;&lt;div&gt;&lt;span style=&quot;background-color: initial;&quot;&gt;Actors: Staff&lt;/span&gt;&lt;/div&gt;&lt;div&gt;Description: Once package moved to pending it will automatically send an email to the&amp;nbsp;&lt;/div&gt;&lt;div&gt;resident announcing they have a package for pickup.&lt;/div&gt;&lt;div&gt;&lt;br&gt;&lt;/div&gt;&lt;div&gt;&lt;b&gt;Use Case Name: Remove from Pending List&lt;/b&gt;&lt;/div&gt;&lt;div&gt;&lt;span style=&quot;background-color: initial;&quot;&gt;Actor: Staff&lt;/span&gt;&lt;/div&gt;&lt;div&gt;&lt;span style=&quot;background-color: initial;&quot;&gt;Description: Once resident picks up package the record should be moved to Completed Pickup List&lt;/span&gt;&lt;/div&gt;&lt;div&gt;&lt;span style=&quot;background-color: initial;&quot;&gt;&lt;br&gt;&lt;/span&gt;&lt;/div&gt;&lt;div&gt;&lt;b&gt;Use Case Name: Add to non-resident list&lt;/b&gt;&lt;/div&gt;&lt;div&gt;Actor: Staff&lt;/div&gt;&lt;div&gt;Description:&amp;nbsp; For packages that are delivered to non-residents staff can put it in this list&amp;nbsp;&lt;/div&gt;&lt;div&gt;to be returned to delivery service.&lt;/div&gt;&lt;div&gt;&lt;br&gt;&lt;/div&gt;&lt;div&gt;&lt;div&gt;&lt;b&gt;Use Case Name: Record retrieval&lt;/b&gt;&lt;/div&gt;&lt;div&gt;&lt;span style=&quot;background-color: initial;&quot;&gt;Actors: Staff&lt;/span&gt;&lt;/div&gt;&lt;div&gt;Description: Staff can retrieve a resident&#39;s package history by searching their apartment number&lt;/div&gt;&lt;/div&gt;&lt;div&gt;and name.&lt;/div&gt;&lt;div&gt;&lt;br&gt;&lt;/div&gt;&lt;/div&gt;&lt;div&gt;&lt;div&gt;&lt;div&gt;&lt;b&gt;Use Case Name: User Logout&lt;/b&gt;&lt;/div&gt;&lt;div&gt;&lt;span style=&quot;background-color: initial;&quot;&gt;Actors: Staff&lt;/span&gt;&lt;/div&gt;&lt;div&gt;Description: Staff logs out of system&lt;/div&gt;&lt;/div&gt;&lt;/div&gt;" style="text;html=1;align=left;verticalAlign=middle;resizable=0;points=[];autosize=1;strokeColor=none;fillColor=none;" parent="1" vertex="1">
          <mxGeometry x="20" y="10" width="550" height="490" as="geometry" />
        </mxCell>
        <mxCell id="WTzY3c__YsyZZa85z-_g-3" value="Mailroom Management Application" style="shape=umlFrame;whiteSpace=wrap;html=1;pointerEvents=0;width=170;height=40;" parent="1" vertex="1">
          <mxGeometry x="205" y="520" width="440" height="640" as="geometry" />
        </mxCell>
        <mxCell id="WTzY3c__YsyZZa85z-_g-5" value="Add to Pending Pickup List" style="ellipse;whiteSpace=wrap;html=1;" parent="1" vertex="1">
          <mxGeometry x="360" y="680" width="120" height="50" as="geometry" />
        </mxCell>
        <mxCell id="WTzY3c__YsyZZa85z-_g-6" value="Remove from Pending List" style="ellipse;whiteSpace=wrap;html=1;" parent="1" vertex="1">
          <mxGeometry x="360" y="760" width="120" height="50" as="geometry" />
        </mxCell>
        <mxCell id="WTzY3c__YsyZZa85z-_g-7" value="Email Notification" style="ellipse;whiteSpace=wrap;html=1;" parent="1" vertex="1">
          <mxGeometry x="505" y="720" width="120" height="50" as="geometry" />
        </mxCell>
        <mxCell id="WTzY3c__YsyZZa85z-_g-9" value="Add to Non-Resident List" style="ellipse;whiteSpace=wrap;html=1;" parent="1" vertex="1">
          <mxGeometry x="365" y="850" width="120" height="50" as="geometry" />
        </mxCell>
        <mxCell id="WTzY3c__YsyZZa85z-_g-10" value="Record Retrieval" style="ellipse;whiteSpace=wrap;html=1;" parent="1" vertex="1">
          <mxGeometry x="365" y="920" width="120" height="50" as="geometry" />
        </mxCell>
        <mxCell id="WTzY3c__YsyZZa85z-_g-13" value="User Logout" style="ellipse;whiteSpace=wrap;html=1;" parent="1" vertex="1">
          <mxGeometry x="365" y="1000" width="120" height="50" as="geometry" />
        </mxCell>
        <mxCell id="WTzY3c__YsyZZa85z-_g-14" value="User Login" style="ellipse;whiteSpace=wrap;html=1;" parent="1" vertex="1">
          <mxGeometry x="360" y="620" width="120" height="50" as="geometry" />
        </mxCell>
        <mxCell id="WTzY3c__YsyZZa85z-_g-15" value="Staff" style="shape=umlActor;verticalLabelPosition=bottom;verticalAlign=top;html=1;outlineConnect=0;" parent="1" vertex="1">
          <mxGeometry x="130" y="750" width="35" height="80" as="geometry" />
        </mxCell>
        <mxCell id="WTzY3c__YsyZZa85z-_g-18" value="" style="endArrow=classic;html=1;rounded=0;entryX=0;entryY=0.5;entryDx=0;entryDy=0;" parent="1" target="WTzY3c__YsyZZa85z-_g-14" edge="1">
          <mxGeometry width="50" height="50" relative="1" as="geometry">
            <mxPoint x="170" y="790" as="sourcePoint" />
            <mxPoint x="373" y="602" as="targetPoint" />
          </mxGeometry>
        </mxCell>
        <mxCell id="WTzY3c__YsyZZa85z-_g-19" value="" style="endArrow=classic;html=1;rounded=0;entryX=0;entryY=0.5;entryDx=0;entryDy=0;" parent="1" edge="1">
          <mxGeometry width="50" height="50" relative="1" as="geometry">
            <mxPoint x="170" y="790" as="sourcePoint" />
            <mxPoint x="360" y="705" as="targetPoint" />
          </mxGeometry>
        </mxCell>
        <mxCell id="WTzY3c__YsyZZa85z-_g-20" value="" style="endArrow=classic;html=1;rounded=0;" parent="1" target="WTzY3c__YsyZZa85z-_g-3" edge="1">
          <mxGeometry width="50" height="50" relative="1" as="geometry">
            <mxPoint x="170" y="790" as="sourcePoint" />
            <mxPoint x="370" y="715" as="targetPoint" />
          </mxGeometry>
        </mxCell>
        <mxCell id="WTzY3c__YsyZZa85z-_g-21" value="" style="endArrow=classic;html=1;rounded=0;entryX=0;entryY=0.4;entryDx=0;entryDy=0;entryPerimeter=0;" parent="1" target="WTzY3c__YsyZZa85z-_g-6" edge="1">
          <mxGeometry width="50" height="50" relative="1" as="geometry">
            <mxPoint x="170" y="790" as="sourcePoint" />
            <mxPoint x="515" y="755" as="targetPoint" />
          </mxGeometry>
        </mxCell>
        <mxCell id="WTzY3c__YsyZZa85z-_g-22" value="" style="endArrow=classic;html=1;rounded=0;entryX=0;entryY=0.4;entryDx=0;entryDy=0;entryPerimeter=0;" parent="1" target="WTzY3c__YsyZZa85z-_g-9" edge="1">
          <mxGeometry width="50" height="50" relative="1" as="geometry">
            <mxPoint x="170" y="790" as="sourcePoint" />
            <mxPoint x="370" y="810" as="targetPoint" />
          </mxGeometry>
        </mxCell>
        <mxCell id="WTzY3c__YsyZZa85z-_g-23" value="" style="endArrow=classic;html=1;rounded=0;entryX=0.015;entryY=0.363;entryDx=0;entryDy=0;entryPerimeter=0;" parent="1" target="WTzY3c__YsyZZa85z-_g-10" edge="1">
          <mxGeometry width="50" height="50" relative="1" as="geometry">
            <mxPoint x="170" y="790" as="sourcePoint" />
            <mxPoint x="355" y="890" as="targetPoint" />
          </mxGeometry>
        </mxCell>
        <mxCell id="WTzY3c__YsyZZa85z-_g-25" value="" style="endArrow=classic;html=1;rounded=0;entryX=0.022;entryY=0.397;entryDx=0;entryDy=0;entryPerimeter=0;" parent="1" target="WTzY3c__YsyZZa85z-_g-13" edge="1">
          <mxGeometry width="50" height="50" relative="1" as="geometry">
            <mxPoint x="170" y="790" as="sourcePoint" />
            <mxPoint x="360" y="1014" as="targetPoint" />
          </mxGeometry>
        </mxCell>
        <mxCell id="WTzY3c__YsyZZa85z-_g-29" value="" style="endArrow=openThin;html=1;rounded=0;entryX=0.084;entryY=0.172;entryDx=0;entryDy=0;exitX=1;exitY=0.5;exitDx=0;exitDy=0;dashed=1;endFill=0;entryPerimeter=0;" parent="1" source="WTzY3c__YsyZZa85z-_g-5" target="WTzY3c__YsyZZa85z-_g-7" edge="1">
          <mxGeometry width="50" height="50" relative="1" as="geometry">
            <mxPoint x="607.5" y="655" as="sourcePoint" />
            <mxPoint x="522.4999999999998" y="640" as="targetPoint" />
          </mxGeometry>
        </mxCell>
        <mxCell id="WTzY3c__YsyZZa85z-_g-33" value="&lt;font style=&quot;font-size: 8px;&quot;&gt;Extension&lt;/font&gt;" style="text;html=1;align=center;verticalAlign=middle;resizable=0;points=[];autosize=1;strokeColor=none;fillColor=none;rotation=30;" parent="1" vertex="1">
          <mxGeometry x="470" y="690" width="60" height="30" as="geometry" />
        </mxCell>
        <mxCell id="WTzY3c__YsyZZa85z-_g-34" value="&lt;font style=&quot;font-size: 8px;&quot;&gt;Extension&lt;/font&gt;" style="text;html=1;align=center;verticalAlign=middle;resizable=0;points=[];autosize=1;strokeColor=none;fillColor=none;rotation=0;" parent="1" vertex="1">
          <mxGeometry x="410" y="730" width="60" height="30" as="geometry" />
        </mxCell>
        <mxCell id="WTzY3c__YsyZZa85z-_g-35" value="" style="endArrow=openThin;html=1;rounded=0;entryX=0.5;entryY=0;entryDx=0;entryDy=0;exitX=0.5;exitY=1;exitDx=0;exitDy=0;dashed=1;endFill=0;" parent="1" source="WTzY3c__YsyZZa85z-_g-5" target="WTzY3c__YsyZZa85z-_g-6" edge="1">
          <mxGeometry width="50" height="50" relative="1" as="geometry">
            <mxPoint x="432.5" y="733" as="sourcePoint" />
            <mxPoint x="467.5" y="757" as="targetPoint" />
          </mxGeometry>
        </mxCell>
        <mxCell id="sTGdeiqrP-qVzlTMcL3T-1" value="Benjamin Hall&lt;br&gt;CIDM 4360" style="text;html=1;align=center;verticalAlign=middle;resizable=0;points=[];autosize=1;strokeColor=none;fillColor=none;" vertex="1" parent="1">
          <mxGeometry x="680" y="23" width="100" height="40" as="geometry" />
        </mxCell>
      </root>
    </mxGraphModel>
  </diagram>
  <diagram id="AHONfo1gxMdIiBiwGs59" name="Activity Diagram">
    <mxGraphModel dx="1588" dy="1022" grid="1" gridSize="10" guides="1" tooltips="1" connect="1" arrows="1" fold="1" page="1" pageScale="1" pageWidth="850" pageHeight="1400" math="0" shadow="0">
      <root>
        <mxCell id="0" />
        <mxCell id="1" parent="0" />
        <mxCell id="YW1asJ8JNSCI-h5phulB-1" value="" style="ellipse;html=1;shape=startState;fillColor=#000000;strokeColor=#ff0000;" vertex="1" parent="1">
          <mxGeometry x="433" y="70" width="30" height="30" as="geometry" />
        </mxCell>
        <mxCell id="YW1asJ8JNSCI-h5phulB-2" value="" style="edgeStyle=orthogonalEdgeStyle;html=1;verticalAlign=bottom;endArrow=open;endSize=8;strokeColor=#ff0000;rounded=0;entryX=0.5;entryY=0;entryDx=0;entryDy=0;" edge="1" source="YW1asJ8JNSCI-h5phulB-1" parent="1" target="YW1asJ8JNSCI-h5phulB-3">
          <mxGeometry relative="1" as="geometry">
            <mxPoint x="448" y="160" as="targetPoint" />
          </mxGeometry>
        </mxCell>
        <mxCell id="YW1asJ8JNSCI-h5phulB-3" value="User Login" style="rounded=1;whiteSpace=wrap;html=1;" vertex="1" parent="1">
          <mxGeometry x="385.5" y="170" width="125" height="40" as="geometry" />
        </mxCell>
        <mxCell id="YW1asJ8JNSCI-h5phulB-7" style="edgeStyle=orthogonalEdgeStyle;rounded=0;orthogonalLoop=1;jettySize=auto;html=1;entryX=0.5;entryY=0;entryDx=0;entryDy=0;" edge="1" parent="1" source="YW1asJ8JNSCI-h5phulB-4" target="YW1asJ8JNSCI-h5phulB-6">
          <mxGeometry relative="1" as="geometry" />
        </mxCell>
        <mxCell id="YW1asJ8JNSCI-h5phulB-8" style="edgeStyle=orthogonalEdgeStyle;rounded=0;orthogonalLoop=1;jettySize=auto;html=1;" edge="1" parent="1" source="YW1asJ8JNSCI-h5phulB-4">
          <mxGeometry relative="1" as="geometry">
            <mxPoint x="553" y="290" as="targetPoint" />
          </mxGeometry>
        </mxCell>
        <mxCell id="YW1asJ8JNSCI-h5phulB-4" value="Login Valid?" style="strokeWidth=2;html=1;shape=mxgraph.flowchart.decision;whiteSpace=wrap;" vertex="1" parent="1">
          <mxGeometry x="410.5" y="250" width="75" height="80" as="geometry" />
        </mxCell>
        <mxCell id="YW1asJ8JNSCI-h5phulB-5" style="edgeStyle=orthogonalEdgeStyle;rounded=0;orthogonalLoop=1;jettySize=auto;html=1;entryX=0.5;entryY=0;entryDx=0;entryDy=0;entryPerimeter=0;" edge="1" parent="1" source="YW1asJ8JNSCI-h5phulB-3" target="YW1asJ8JNSCI-h5phulB-4">
          <mxGeometry relative="1" as="geometry" />
        </mxCell>
        <mxCell id="2lImpTcYfrZEQbVhM97P-2" style="edgeStyle=orthogonalEdgeStyle;rounded=0;orthogonalLoop=1;jettySize=auto;html=1;entryX=1;entryY=0.5;entryDx=0;entryDy=0;" edge="1" parent="1" source="YW1asJ8JNSCI-h5phulB-6" target="2lImpTcYfrZEQbVhM97P-1">
          <mxGeometry relative="1" as="geometry" />
        </mxCell>
        <mxCell id="YW1asJ8JNSCI-h5phulB-6" value="Home Dashboard" style="rounded=1;whiteSpace=wrap;html=1;" vertex="1" parent="1">
          <mxGeometry x="383" y="370" width="130" height="40" as="geometry" />
        </mxCell>
        <mxCell id="YW1asJ8JNSCI-h5phulB-10" style="rounded=0;orthogonalLoop=1;jettySize=auto;html=1;entryX=1;entryY=0.5;entryDx=0;entryDy=0;" edge="1" parent="1" source="YW1asJ8JNSCI-h5phulB-9" target="YW1asJ8JNSCI-h5phulB-3">
          <mxGeometry relative="1" as="geometry">
            <Array as="points">
              <mxPoint x="618" y="190" />
            </Array>
          </mxGeometry>
        </mxCell>
        <mxCell id="YW1asJ8JNSCI-h5phulB-9" value="Display Error" style="rounded=1;whiteSpace=wrap;html=1;" vertex="1" parent="1">
          <mxGeometry x="553" y="270" width="130" height="40" as="geometry" />
        </mxCell>
        <mxCell id="YW1asJ8JNSCI-h5phulB-11" value="No" style="text;html=1;align=center;verticalAlign=middle;resizable=0;points=[];autosize=1;strokeColor=none;fillColor=none;" vertex="1" parent="1">
          <mxGeometry x="483" y="268" width="40" height="30" as="geometry" />
        </mxCell>
        <mxCell id="YW1asJ8JNSCI-h5phulB-12" value="Yes" style="text;html=1;align=center;verticalAlign=middle;resizable=0;points=[];autosize=1;strokeColor=none;fillColor=none;" vertex="1" parent="1">
          <mxGeometry x="443" y="328" width="40" height="30" as="geometry" />
        </mxCell>
        <mxCell id="YW1asJ8JNSCI-h5phulB-16" style="edgeStyle=orthogonalEdgeStyle;rounded=0;orthogonalLoop=1;jettySize=auto;html=1;entryX=0;entryY=0.5;entryDx=0;entryDy=0;" edge="1" parent="1" target="YW1asJ8JNSCI-h5phulB-15">
          <mxGeometry relative="1" as="geometry">
            <mxPoint x="512.9999999999998" y="390" as="sourcePoint" />
          </mxGeometry>
        </mxCell>
        <mxCell id="YW1asJ8JNSCI-h5phulB-20" style="rounded=0;orthogonalLoop=1;jettySize=auto;html=1;entryX=0.5;entryY=0;entryDx=0;entryDy=0;exitX=0.5;exitY=1;exitDx=0;exitDy=0;exitPerimeter=0;" edge="1" parent="1" source="YW1asJ8JNSCI-h5phulB-13" target="YW1asJ8JNSCI-h5phulB-19">
          <mxGeometry relative="1" as="geometry" />
        </mxCell>
        <mxCell id="7406ViI2tNi__yXjGM-k-5" style="rounded=0;orthogonalLoop=1;jettySize=auto;html=1;entryX=0.5;entryY=0;entryDx=0;entryDy=0;exitX=0;exitY=0.5;exitDx=0;exitDy=0;exitPerimeter=0;" edge="1" parent="1" source="YW1asJ8JNSCI-h5phulB-13" target="7406ViI2tNi__yXjGM-k-4">
          <mxGeometry relative="1" as="geometry" />
        </mxCell>
        <mxCell id="YW1asJ8JNSCI-h5phulB-13" value="New&amp;nbsp;&lt;div&gt;Package&lt;/div&gt;" style="strokeWidth=2;html=1;shape=mxgraph.flowchart.decision;whiteSpace=wrap;" vertex="1" parent="1">
          <mxGeometry x="407.5" y="460" width="81" height="90" as="geometry" />
        </mxCell>
        <mxCell id="YW1asJ8JNSCI-h5phulB-14" style="edgeStyle=orthogonalEdgeStyle;rounded=0;orthogonalLoop=1;jettySize=auto;html=1;entryX=0.5;entryY=0;entryDx=0;entryDy=0;entryPerimeter=0;" edge="1" parent="1" source="YW1asJ8JNSCI-h5phulB-6" target="YW1asJ8JNSCI-h5phulB-13">
          <mxGeometry relative="1" as="geometry" />
        </mxCell>
        <mxCell id="YW1asJ8JNSCI-h5phulB-18" style="edgeStyle=orthogonalEdgeStyle;rounded=0;orthogonalLoop=1;jettySize=auto;html=1;entryX=0;entryY=0.5;entryDx=0;entryDy=0;" edge="1" parent="1" source="YW1asJ8JNSCI-h5phulB-15" target="YW1asJ8JNSCI-h5phulB-17">
          <mxGeometry relative="1" as="geometry" />
        </mxCell>
        <mxCell id="YW1asJ8JNSCI-h5phulB-15" value="Logout" style="rounded=1;whiteSpace=wrap;html=1;" vertex="1" parent="1">
          <mxGeometry x="577.5" y="370" width="130" height="40" as="geometry" />
        </mxCell>
        <mxCell id="YW1asJ8JNSCI-h5phulB-17" value="" style="ellipse;html=1;shape=endState;fillColor=#000000;strokeColor=#ff0000;" vertex="1" parent="1">
          <mxGeometry x="767.5" y="375" width="30" height="30" as="geometry" />
        </mxCell>
        <mxCell id="YW1asJ8JNSCI-h5phulB-22" style="edgeStyle=orthogonalEdgeStyle;rounded=0;orthogonalLoop=1;jettySize=auto;html=1;entryX=0.5;entryY=0;entryDx=0;entryDy=0;" edge="1" parent="1" source="YW1asJ8JNSCI-h5phulB-19" target="YW1asJ8JNSCI-h5phulB-21">
          <mxGeometry relative="1" as="geometry" />
        </mxCell>
        <mxCell id="YW1asJ8JNSCI-h5phulB-19" value="Add to Pending Pickup List" style="rounded=1;whiteSpace=wrap;html=1;" vertex="1" parent="1">
          <mxGeometry x="383" y="600" width="130" height="40" as="geometry" />
        </mxCell>
        <mxCell id="YW1asJ8JNSCI-h5phulB-21" value="Select Resident from List" style="rounded=1;whiteSpace=wrap;html=1;" vertex="1" parent="1">
          <mxGeometry x="383" y="680" width="130" height="40" as="geometry" />
        </mxCell>
        <mxCell id="7406ViI2tNi__yXjGM-k-3" style="edgeStyle=orthogonalEdgeStyle;rounded=0;orthogonalLoop=1;jettySize=auto;html=1;" edge="1" parent="1" source="YW1asJ8JNSCI-h5phulB-23" target="7406ViI2tNi__yXjGM-k-2">
          <mxGeometry relative="1" as="geometry" />
        </mxCell>
        <mxCell id="YW1asJ8JNSCI-h5phulB-23" value="Email Notification to Resident" style="rounded=1;whiteSpace=wrap;html=1;" vertex="1" parent="1">
          <mxGeometry x="383" y="820" width="130" height="40" as="geometry" />
        </mxCell>
        <mxCell id="2lImpTcYfrZEQbVhM97P-13" style="edgeStyle=orthogonalEdgeStyle;rounded=0;orthogonalLoop=1;jettySize=auto;html=1;endArrow=none;endFill=0;" edge="1" parent="1" source="7406ViI2tNi__yXjGM-k-2">
          <mxGeometry relative="1" as="geometry">
            <mxPoint x="723" y="800" as="targetPoint" />
          </mxGeometry>
        </mxCell>
        <mxCell id="7406ViI2tNi__yXjGM-k-2" value="Added to Pending Pickup List" style="rounded=1;whiteSpace=wrap;html=1;" vertex="1" parent="1">
          <mxGeometry x="383" y="900" width="130" height="40" as="geometry" />
        </mxCell>
        <mxCell id="7406ViI2tNi__yXjGM-k-7" style="edgeStyle=orthogonalEdgeStyle;rounded=0;orthogonalLoop=1;jettySize=auto;html=1;entryX=0.5;entryY=0;entryDx=0;entryDy=0;" edge="1" parent="1" source="7406ViI2tNi__yXjGM-k-4" target="7406ViI2tNi__yXjGM-k-6">
          <mxGeometry relative="1" as="geometry" />
        </mxCell>
        <mxCell id="7406ViI2tNi__yXjGM-k-4" value="Resident Picking Up Package" style="rounded=1;whiteSpace=wrap;html=1;" vertex="1" parent="1">
          <mxGeometry x="223" y="600" width="130" height="40" as="geometry" />
        </mxCell>
        <mxCell id="2lImpTcYfrZEQbVhM97P-14" style="edgeStyle=orthogonalEdgeStyle;rounded=0;orthogonalLoop=1;jettySize=auto;html=1;entryX=0;entryY=1;entryDx=0;entryDy=0;" edge="1" parent="1" source="7406ViI2tNi__yXjGM-k-6" target="YW1asJ8JNSCI-h5phulB-6">
          <mxGeometry relative="1" as="geometry">
            <mxPoint x="203" y="510" as="targetPoint" />
            <Array as="points">
              <mxPoint x="203" y="700" />
              <mxPoint x="203" y="500" />
              <mxPoint x="383" y="500" />
            </Array>
          </mxGeometry>
        </mxCell>
        <mxCell id="7406ViI2tNi__yXjGM-k-6" value="Removed from Pending List" style="rounded=1;whiteSpace=wrap;html=1;" vertex="1" parent="1">
          <mxGeometry x="223" y="680" width="130" height="40" as="geometry" />
        </mxCell>
        <mxCell id="7406ViI2tNi__yXjGM-k-11" style="edgeStyle=orthogonalEdgeStyle;rounded=0;orthogonalLoop=1;jettySize=auto;html=1;entryX=0.5;entryY=0;entryDx=0;entryDy=0;" edge="1" parent="1" source="7406ViI2tNi__yXjGM-k-8" target="7406ViI2tNi__yXjGM-k-10">
          <mxGeometry relative="1" as="geometry" />
        </mxCell>
        <mxCell id="7406ViI2tNi__yXjGM-k-8" value="Non-Resident Package" style="strokeWidth=2;html=1;shape=mxgraph.flowchart.decision;whiteSpace=wrap;" vertex="1" parent="1">
          <mxGeometry x="593" y="570" width="90" height="95" as="geometry" />
        </mxCell>
        <mxCell id="7406ViI2tNi__yXjGM-k-9" style="rounded=0;orthogonalLoop=1;jettySize=auto;html=1;entryX=0.5;entryY=0;entryDx=0;entryDy=0;entryPerimeter=0;exitX=1;exitY=0.5;exitDx=0;exitDy=0;exitPerimeter=0;" edge="1" parent="1" source="YW1asJ8JNSCI-h5phulB-13" target="7406ViI2tNi__yXjGM-k-8">
          <mxGeometry relative="1" as="geometry">
            <mxPoint x="463" y="520" as="sourcePoint" />
          </mxGeometry>
        </mxCell>
        <mxCell id="7406ViI2tNi__yXjGM-k-13" style="edgeStyle=orthogonalEdgeStyle;rounded=0;orthogonalLoop=1;jettySize=auto;html=1;entryX=0.5;entryY=0;entryDx=0;entryDy=0;" edge="1" parent="1" source="7406ViI2tNi__yXjGM-k-10" target="7406ViI2tNi__yXjGM-k-12">
          <mxGeometry relative="1" as="geometry" />
        </mxCell>
        <mxCell id="7406ViI2tNi__yXjGM-k-10" value="Add to Unknown Recipient List" style="rounded=1;whiteSpace=wrap;html=1;" vertex="1" parent="1">
          <mxGeometry x="573" y="700" width="130" height="40" as="geometry" />
        </mxCell>
        <mxCell id="2lImpTcYfrZEQbVhM97P-12" style="edgeStyle=orthogonalEdgeStyle;rounded=0;orthogonalLoop=1;jettySize=auto;html=1;entryX=1;entryY=1;entryDx=0;entryDy=0;exitX=1;exitY=0.5;exitDx=0;exitDy=0;" edge="1" parent="1" source="7406ViI2tNi__yXjGM-k-12" target="YW1asJ8JNSCI-h5phulB-6">
          <mxGeometry relative="1" as="geometry">
            <Array as="points">
              <mxPoint x="723" y="800" />
              <mxPoint x="723" y="450" />
              <mxPoint x="513" y="450" />
            </Array>
          </mxGeometry>
        </mxCell>
        <mxCell id="7406ViI2tNi__yXjGM-k-12" value="Return to Postal Service" style="rounded=1;whiteSpace=wrap;html=1;" vertex="1" parent="1">
          <mxGeometry x="573" y="780" width="130" height="40" as="geometry" />
        </mxCell>
        <mxCell id="7406ViI2tNi__yXjGM-k-15" style="edgeStyle=orthogonalEdgeStyle;rounded=0;orthogonalLoop=1;jettySize=auto;html=1;entryX=0.5;entryY=1;entryDx=0;entryDy=0;endArrow=none;endFill=0;startArrow=classic;startFill=1;" edge="1" parent="1" source="7406ViI2tNi__yXjGM-k-14" target="YW1asJ8JNSCI-h5phulB-21">
          <mxGeometry relative="1" as="geometry" />
        </mxCell>
        <mxCell id="7406ViI2tNi__yXjGM-k-16" style="edgeStyle=orthogonalEdgeStyle;rounded=0;orthogonalLoop=1;jettySize=auto;html=1;entryX=0.5;entryY=0;entryDx=0;entryDy=0;" edge="1" parent="1" source="7406ViI2tNi__yXjGM-k-14" target="YW1asJ8JNSCI-h5phulB-23">
          <mxGeometry relative="1" as="geometry" />
        </mxCell>
        <mxCell id="7406ViI2tNi__yXjGM-k-14" value="Select Postal Service that delivered" style="rounded=1;whiteSpace=wrap;html=1;" vertex="1" parent="1">
          <mxGeometry x="383" y="750" width="130" height="40" as="geometry" />
        </mxCell>
        <mxCell id="2lImpTcYfrZEQbVhM97P-4" style="edgeStyle=orthogonalEdgeStyle;rounded=0;orthogonalLoop=1;jettySize=auto;html=1;entryX=0.5;entryY=0;entryDx=0;entryDy=0;" edge="1" parent="1" source="2lImpTcYfrZEQbVhM97P-1" target="2lImpTcYfrZEQbVhM97P-3">
          <mxGeometry relative="1" as="geometry" />
        </mxCell>
        <mxCell id="2lImpTcYfrZEQbVhM97P-1" value="Resident Package History" style="rounded=1;whiteSpace=wrap;html=1;" vertex="1" parent="1">
          <mxGeometry x="163" y="370" width="130" height="40" as="geometry" />
        </mxCell>
        <mxCell id="2lImpTcYfrZEQbVhM97P-7" style="rounded=0;orthogonalLoop=1;jettySize=auto;html=1;entryX=0.5;entryY=0;entryDx=0;entryDy=0;entryPerimeter=0;" edge="1" parent="1" target="2lImpTcYfrZEQbVhM97P-6">
          <mxGeometry relative="1" as="geometry">
            <mxPoint x="162.99555555555554" y="470" as="sourcePoint" />
            <mxPoint x="121.44" y="505.4502369668246" as="targetPoint" />
          </mxGeometry>
        </mxCell>
        <mxCell id="2lImpTcYfrZEQbVhM97P-3" value="Search Resident Apt # and Name" style="rounded=1;whiteSpace=wrap;html=1;" vertex="1" parent="1">
          <mxGeometry x="163" y="445" width="130" height="40" as="geometry" />
        </mxCell>
        <mxCell id="2lImpTcYfrZEQbVhM97P-5" value="Retrieve Record" style="rounded=1;whiteSpace=wrap;html=1;" vertex="1" parent="1">
          <mxGeometry x="57.5" y="640" width="130" height="40" as="geometry" />
        </mxCell>
        <mxCell id="2lImpTcYfrZEQbVhM97P-8" style="edgeStyle=orthogonalEdgeStyle;rounded=0;orthogonalLoop=1;jettySize=auto;html=1;entryX=0.5;entryY=0;entryDx=0;entryDy=0;" edge="1" parent="1" source="2lImpTcYfrZEQbVhM97P-6" target="2lImpTcYfrZEQbVhM97P-5">
          <mxGeometry relative="1" as="geometry">
            <mxPoint x="122.5" y="629.9999999999999" as="targetPoint" />
          </mxGeometry>
        </mxCell>
        <mxCell id="2lImpTcYfrZEQbVhM97P-10" style="edgeStyle=orthogonalEdgeStyle;rounded=0;orthogonalLoop=1;jettySize=auto;html=1;entryX=0;entryY=0.25;entryDx=0;entryDy=0;exitX=0;exitY=0.5;exitDx=0;exitDy=0;exitPerimeter=0;" edge="1" parent="1" source="2lImpTcYfrZEQbVhM97P-6" target="2lImpTcYfrZEQbVhM97P-3">
          <mxGeometry relative="1" as="geometry" />
        </mxCell>
        <mxCell id="2lImpTcYfrZEQbVhM97P-6" value="Record&amp;nbsp;&lt;div&gt;Found?&lt;/div&gt;" style="strokeWidth=2;html=1;shape=mxgraph.flowchart.decision;whiteSpace=wrap;" vertex="1" parent="1">
          <mxGeometry x="82" y="510" width="81" height="90" as="geometry" />
        </mxCell>
        <mxCell id="2lImpTcYfrZEQbVhM97P-9" value="Yes" style="text;html=1;align=center;verticalAlign=middle;resizable=0;points=[];autosize=1;strokeColor=none;fillColor=none;" vertex="1" parent="1">
          <mxGeometry x="113" y="605" width="40" height="30" as="geometry" />
        </mxCell>
        <mxCell id="2lImpTcYfrZEQbVhM97P-11" value="No" style="text;html=1;align=center;verticalAlign=middle;resizable=0;points=[];autosize=1;strokeColor=none;fillColor=none;" vertex="1" parent="1">
          <mxGeometry x="53" y="490" width="40" height="30" as="geometry" />
        </mxCell>
        <mxCell id="7yHWoJqALDHFeSr3tgcz-1" value="Activity Diagram" style="text;html=1;align=center;verticalAlign=middle;resizable=0;points=[];autosize=1;strokeColor=none;fillColor=none;" vertex="1" parent="1">
          <mxGeometry x="20" y="20" width="110" height="30" as="geometry" />
        </mxCell>
      </root>
    </mxGraphModel>
  </diagram>
  <diagram id="7NYJHCxG0V0dd1wQgxIs" name="State Diagram">
    <mxGraphModel dx="1323" dy="852" grid="1" gridSize="10" guides="1" tooltips="1" connect="1" arrows="1" fold="1" page="1" pageScale="1" pageWidth="850" pageHeight="1400" math="0" shadow="0">
      <root>
        <mxCell id="0" />
        <mxCell id="1" parent="0" />
        <mxCell id="d4yFMNoVlzaBMaZQuLmS-1" value="" style="ellipse;html=1;shape=startState;fillColor=#000000;strokeColor=#ff0000;" vertex="1" parent="1">
          <mxGeometry x="410" y="40" width="30" height="30" as="geometry" />
        </mxCell>
        <mxCell id="d4yFMNoVlzaBMaZQuLmS-2" value="" style="edgeStyle=orthogonalEdgeStyle;html=1;verticalAlign=bottom;endArrow=open;endSize=8;strokeColor=#ff0000;rounded=0;entryX=0.5;entryY=0;entryDx=0;entryDy=0;" edge="1" source="d4yFMNoVlzaBMaZQuLmS-1" parent="1" target="d4yFMNoVlzaBMaZQuLmS-3">
          <mxGeometry relative="1" as="geometry">
            <mxPoint x="425" y="130" as="targetPoint" />
          </mxGeometry>
        </mxCell>
        <mxCell id="d4yFMNoVlzaBMaZQuLmS-3" value="User not logged in" style="rounded=1;whiteSpace=wrap;html=1;" vertex="1" parent="1">
          <mxGeometry x="360" y="140" width="130" height="40" as="geometry" />
        </mxCell>
        <mxCell id="d4yFMNoVlzaBMaZQuLmS-4" value="" style="strokeWidth=2;html=1;shape=mxgraph.flowchart.decision;whiteSpace=wrap;" vertex="1" parent="1">
          <mxGeometry x="375" y="220" width="100" height="70" as="geometry" />
        </mxCell>
        <mxCell id="d4yFMNoVlzaBMaZQuLmS-5" style="edgeStyle=orthogonalEdgeStyle;rounded=0;orthogonalLoop=1;jettySize=auto;html=1;entryX=0.5;entryY=0;entryDx=0;entryDy=0;entryPerimeter=0;" edge="1" parent="1" source="d4yFMNoVlzaBMaZQuLmS-3" target="d4yFMNoVlzaBMaZQuLmS-4">
          <mxGeometry relative="1" as="geometry" />
        </mxCell>
        <mxCell id="d4yFMNoVlzaBMaZQuLmS-6" value="Home Dashboard" style="rounded=1;whiteSpace=wrap;html=1;" vertex="1" parent="1">
          <mxGeometry x="360" y="370" width="130" height="40" as="geometry" />
        </mxCell>
        <mxCell id="d4yFMNoVlzaBMaZQuLmS-10" value="Login" style="endArrow=classic;endSize=6;endFill=1;html=1;rounded=0;entryX=0.5;entryY=0;entryDx=0;entryDy=0;exitX=0.5;exitY=1;exitDx=0;exitDy=0;exitPerimeter=0;" edge="1" parent="1" source="d4yFMNoVlzaBMaZQuLmS-4" target="d4yFMNoVlzaBMaZQuLmS-6">
          <mxGeometry width="160" relative="1" as="geometry">
            <mxPoint x="330" y="270" as="sourcePoint" />
            <mxPoint x="490" y="270" as="targetPoint" />
          </mxGeometry>
        </mxCell>
        <mxCell id="WvxBzvHsFkGsijrs0LHS-3" style="edgeStyle=orthogonalEdgeStyle;rounded=0;orthogonalLoop=1;jettySize=auto;html=1;entryX=1;entryY=0.5;entryDx=0;entryDy=0;exitX=0.5;exitY=1;exitDx=0;exitDy=0;" edge="1" parent="1" source="d4yFMNoVlzaBMaZQuLmS-11" target="d4yFMNoVlzaBMaZQuLmS-20">
          <mxGeometry relative="1" as="geometry" />
        </mxCell>
        <mxCell id="d4yFMNoVlzaBMaZQuLmS-11" value="Pending List" style="rounded=1;whiteSpace=wrap;html=1;" vertex="1" parent="1">
          <mxGeometry x="620" y="430" width="130" height="40" as="geometry" />
        </mxCell>
        <mxCell id="d4yFMNoVlzaBMaZQuLmS-13" value="Add to Pending" style="endArrow=classic;endSize=6;endFill=1;html=1;rounded=0;exitX=1;exitY=0.5;exitDx=0;exitDy=0;entryX=0.5;entryY=0;entryDx=0;entryDy=0;" edge="1" parent="1" source="d4yFMNoVlzaBMaZQuLmS-6" target="d4yFMNoVlzaBMaZQuLmS-11">
          <mxGeometry width="160" relative="1" as="geometry">
            <mxPoint x="510" y="389.29" as="sourcePoint" />
            <mxPoint x="670" y="389.29" as="targetPoint" />
            <Array as="points">
              <mxPoint x="685" y="390" />
            </Array>
          </mxGeometry>
        </mxCell>
        <mxCell id="WvxBzvHsFkGsijrs0LHS-1" style="edgeStyle=orthogonalEdgeStyle;rounded=0;orthogonalLoop=1;jettySize=auto;html=1;entryX=0;entryY=0.5;entryDx=0;entryDy=0;exitX=0.5;exitY=1;exitDx=0;exitDy=0;" edge="1" parent="1" source="d4yFMNoVlzaBMaZQuLmS-15" target="d4yFMNoVlzaBMaZQuLmS-20">
          <mxGeometry relative="1" as="geometry" />
        </mxCell>
        <mxCell id="d4yFMNoVlzaBMaZQuLmS-15" value="Retrieve Record" style="rounded=1;whiteSpace=wrap;html=1;" vertex="1" parent="1">
          <mxGeometry x="110" y="440" width="130" height="40" as="geometry" />
        </mxCell>
        <mxCell id="d4yFMNoVlzaBMaZQuLmS-17" value="Record Retrieval" style="endArrow=classic;endSize=6;endFill=1;html=1;rounded=0;exitX=0;exitY=0.5;exitDx=0;exitDy=0;entryX=0.5;entryY=0;entryDx=0;entryDy=0;" edge="1" parent="1" source="d4yFMNoVlzaBMaZQuLmS-6" target="d4yFMNoVlzaBMaZQuLmS-15">
          <mxGeometry width="160" relative="1" as="geometry">
            <mxPoint x="70" y="380" as="sourcePoint" />
            <mxPoint x="225" y="430" as="targetPoint" />
            <Array as="points">
              <mxPoint x="175" y="390" />
            </Array>
          </mxGeometry>
        </mxCell>
        <mxCell id="WvxBzvHsFkGsijrs0LHS-2" style="edgeStyle=orthogonalEdgeStyle;rounded=0;orthogonalLoop=1;jettySize=auto;html=1;entryX=0.5;entryY=0;entryDx=0;entryDy=0;" edge="1" parent="1" source="d4yFMNoVlzaBMaZQuLmS-18" target="d4yFMNoVlzaBMaZQuLmS-20">
          <mxGeometry relative="1" as="geometry" />
        </mxCell>
        <mxCell id="d4yFMNoVlzaBMaZQuLmS-18" value="Unknown List" style="rounded=1;whiteSpace=wrap;html=1;" vertex="1" parent="1">
          <mxGeometry x="360" y="520" width="130" height="40" as="geometry" />
        </mxCell>
        <mxCell id="d4yFMNoVlzaBMaZQuLmS-19" value="Add to Unknown List" style="endArrow=classic;endSize=6;endFill=1;html=1;rounded=0;exitX=0.5;exitY=1;exitDx=0;exitDy=0;entryX=0.5;entryY=0;entryDx=0;entryDy=0;" edge="1" parent="1" source="d4yFMNoVlzaBMaZQuLmS-6" target="d4yFMNoVlzaBMaZQuLmS-18">
          <mxGeometry width="160" relative="1" as="geometry">
            <mxPoint x="380" y="550" as="sourcePoint" />
            <mxPoint x="540" y="550" as="targetPoint" />
          </mxGeometry>
        </mxCell>
        <mxCell id="d4yFMNoVlzaBMaZQuLmS-20" value="" style="ellipse;html=1;shape=endState;fillColor=#000000;strokeColor=#ff0000;" vertex="1" parent="1">
          <mxGeometry x="410" y="660" width="30" height="30" as="geometry" />
        </mxCell>
        <mxCell id="WvxBzvHsFkGsijrs0LHS-4" value="State Diagram" style="text;html=1;align=center;verticalAlign=middle;resizable=0;points=[];autosize=1;strokeColor=none;fillColor=none;" vertex="1" parent="1">
          <mxGeometry x="20" y="28" width="100" height="30" as="geometry" />
        </mxCell>
      </root>
    </mxGraphModel>
  </diagram>
  <diagram id="G8tiqoLRHVqPJPH0xQ_p" name="Class Diagram">
    <mxGraphModel dx="1591" dy="937" grid="1" gridSize="10" guides="1" tooltips="1" connect="1" arrows="1" fold="1" page="1" pageScale="1" pageWidth="850" pageHeight="1400" math="0" shadow="0">
      <root>
        <mxCell id="0" />
        <mxCell id="1" parent="0" />
        <mxCell id="7fc06WC666pc2ujT6506-1" value="Class Diagram" style="text;html=1;align=center;verticalAlign=middle;resizable=0;points=[];autosize=1;strokeColor=none;fillColor=none;" vertex="1" parent="1">
          <mxGeometry x="30" y="18" width="100" height="30" as="geometry" />
        </mxCell>
        <mxCell id="7fc06WC666pc2ujT6506-35" style="rounded=0;orthogonalLoop=1;jettySize=auto;html=1;entryX=0;entryY=0;entryDx=0;entryDy=0;endArrow=none;endFill=0;" edge="1" parent="1" source="7fc06WC666pc2ujT6506-6" target="7fc06WC666pc2ujT6506-22">
          <mxGeometry relative="1" as="geometry" />
        </mxCell>
        <mxCell id="7fc06WC666pc2ujT6506-6" value="Resident" style="swimlane;fontStyle=0;childLayout=stackLayout;horizontal=1;startSize=26;fillColor=none;horizontalStack=0;resizeParent=1;resizeParentMax=0;resizeLast=0;collapsible=1;marginBottom=0;whiteSpace=wrap;html=1;" vertex="1" parent="1">
          <mxGeometry x="30" y="404" width="200" height="136" as="geometry" />
        </mxCell>
        <mxCell id="7fc06WC666pc2ujT6506-7" value="+ residentName: String" style="text;strokeColor=none;fillColor=none;align=left;verticalAlign=top;spacingLeft=4;spacingRight=4;overflow=hidden;rotatable=0;points=[[0,0.5],[1,0.5]];portConstraint=eastwest;whiteSpace=wrap;html=1;" vertex="1" parent="7fc06WC666pc2ujT6506-6">
          <mxGeometry y="26" width="200" height="26" as="geometry" />
        </mxCell>
        <mxCell id="7fc06WC666pc2ujT6506-8" value="+ residentAptNum: Integer&lt;div&gt;&lt;br&gt;&lt;/div&gt;&lt;div&gt;+ residentEmail: String&lt;span style=&quot;color: rgba(0, 0, 0, 0); font-family: monospace; font-size: 0px; text-wrap: nowrap; background-color: initial;&quot;&gt;%3CmxGraphModel%3E%3Croot%3E%3CmxCell%20id%3D%220%22%2F%3E%3CmxCell%20id%3D%221%22%20parent%3D%220%22%2F%3E%3CmxCell%20id%3D%222%22%20value%3D%22%2B%20PackageHistory%3A%20List%26amp%3Blt%3BResident%26amp%3Bgt%3B%22%20style%3D%22text%3BstrokeColor%3Dnone%3BfillColor%3Dnone%3Balign%3Dleft%3BverticalAlign%3Dtop%3BspacingLeft%3D4%3BspacingRight%3D4%3Boverflow%3Dhidden%3Brotatable%3D0%3Bpoints%3D%5B%5B0%2C0.5%5D%2C%5B1%2C0.5%5D%5D%3BportConstraint%3Deastwest%3BwhiteSpace%3Dwrap%3Bhtml%3D1%3B%22%20vertex%3D%221%22%20parent%3D%221%22%3E%3CmxGeometry%20x%3D%2250%22%20y%3D%22500%22%20width%3D%22200%22%20height%3D%2226%22%20as%3D%22geometry%22%2F%3E%3C%2FmxCell%3E%3C%2Froot%3E%3C%2FmxGraphModel%3E&lt;/span&gt;&lt;div&gt;&lt;span style=&quot;color: rgba(0, 0, 0, 0); font-family: monospace; font-size: 0px; text-wrap: nowrap;&quot;&gt;+&lt;/span&gt;&lt;/div&gt;&lt;div&gt;&lt;span style=&quot;color: rgba(0, 0, 0, 0); font-family: monospace; font-size: 0px; text-wrap: nowrap;&quot;&gt;+&lt;/span&gt;&lt;/div&gt;&lt;div&gt;&lt;span style=&quot;color: rgba(0, 0, 0, 0); font-family: monospace; font-size: 0px; text-wrap: nowrap;&quot;&gt;%3CmxGraphModel%3E%3Croot%3E%3CmxCell%20id%3D%220%22%2F%3E%3CmxCell%20id%3D%221%22%20parent%3D%220%22%2F%3E%3CmxCell%20id%3D%222%22%20value%3D%22%2B%20PackageHistory%3A%20List%26amp%3Blt%3BResident%26amp%3Bgt%3B%22%20style%3D%22text%3BstrokeColor%3Dnone%3BfillColor%3Dnone%3Balign%3Dleft%3BverticalAlign%3Dtop%3BspacingLeft%3D4%3BspacingRight%3D4%3Boverflow%3Dhidden%3Brotatable%3D0%3Bpoints%3D%5B%5B0%2C0.5%5D%2C%5B1%2C0.5%5D%5D%3BportConstraint%3Deastwest%3BwhiteSpace%3Dwrap%3Bhtml%3D1%3B%22%20vertex%3D%221%22%20parent%3D%221%22%3E%3CmxGeometry%20x%3D%2250%22%20y%3D%22500%22%20width%3D%22200%22%20height%3D%2226%22%20as%3D%22geometry%22%2F%3E%3C%2FmxCell%3E%3C%2Froot%3E%3C%2FmxGraphModel%3E&lt;/span&gt;&lt;br&gt;&lt;/div&gt;&lt;div&gt;&lt;span style=&quot;color: rgba(0, 0, 0, 0); font-family: monospace; font-size: 0px; text-wrap: nowrap;&quot;&gt;+&lt;/span&gt;&lt;/div&gt;&lt;div&gt;&lt;span style=&quot;color: rgba(0, 0, 0, 0); font-family: monospace; font-size: 0px; text-wrap: nowrap;&quot;&gt;+&lt;/span&gt;&lt;/div&gt;&lt;/div&gt;" style="text;strokeColor=none;fillColor=none;align=left;verticalAlign=top;spacingLeft=4;spacingRight=4;overflow=hidden;rotatable=0;points=[[0,0.5],[1,0.5]];portConstraint=eastwest;whiteSpace=wrap;html=1;" vertex="1" parent="7fc06WC666pc2ujT6506-6">
          <mxGeometry y="52" width="200" height="58" as="geometry" />
        </mxCell>
        <mxCell id="7fc06WC666pc2ujT6506-9" value="+ PackageHistory: List&amp;lt;Resident&amp;gt;" style="text;strokeColor=none;fillColor=none;align=left;verticalAlign=top;spacingLeft=4;spacingRight=4;overflow=hidden;rotatable=0;points=[[0,0.5],[1,0.5]];portConstraint=eastwest;whiteSpace=wrap;html=1;" vertex="1" parent="7fc06WC666pc2ujT6506-6">
          <mxGeometry y="110" width="200" height="26" as="geometry" />
        </mxCell>
        <mxCell id="7fc06WC666pc2ujT6506-32" style="rounded=0;orthogonalLoop=1;jettySize=auto;html=1;entryX=1;entryY=0;entryDx=0;entryDy=0;endArrow=none;endFill=0;" edge="1" parent="1" source="7fc06WC666pc2ujT6506-14" target="7fc06WC666pc2ujT6506-22">
          <mxGeometry relative="1" as="geometry" />
        </mxCell>
        <mxCell id="7fc06WC666pc2ujT6506-14" value="Package" style="swimlane;fontStyle=1;align=center;verticalAlign=top;childLayout=stackLayout;horizontal=1;startSize=26;horizontalStack=0;resizeParent=1;resizeParentMax=0;resizeLast=0;collapsible=1;marginBottom=0;whiteSpace=wrap;html=1;" vertex="1" parent="1">
          <mxGeometry x="540" y="420" width="240" height="154" as="geometry" />
        </mxCell>
        <mxCell id="7fc06WC666pc2ujT6506-15" value="+ packageID: Integer&lt;br&gt;&lt;div&gt;+ ArrivalDate: Date&lt;/div&gt;&lt;div&gt;+ Carrier: String&lt;/div&gt;&lt;div&gt;+ residentAptNum: Integer&lt;/div&gt;&lt;div&gt;+ residentName: String&lt;/div&gt;" style="text;strokeColor=none;fillColor=none;align=left;verticalAlign=top;spacingLeft=4;spacingRight=4;overflow=hidden;rotatable=0;points=[[0,0.5],[1,0.5]];portConstraint=eastwest;whiteSpace=wrap;html=1;" vertex="1" parent="7fc06WC666pc2ujT6506-14">
          <mxGeometry y="26" width="240" height="94" as="geometry" />
        </mxCell>
        <mxCell id="7fc06WC666pc2ujT6506-16" value="" style="line;strokeWidth=1;fillColor=none;align=left;verticalAlign=middle;spacingTop=-1;spacingLeft=3;spacingRight=3;rotatable=0;labelPosition=right;points=[];portConstraint=eastwest;strokeColor=inherit;" vertex="1" parent="7fc06WC666pc2ujT6506-14">
          <mxGeometry y="120" width="240" height="8" as="geometry" />
        </mxCell>
        <mxCell id="7fc06WC666pc2ujT6506-17" value="+ PackagePickedup(): List&amp;lt;Record&amp;gt;" style="text;strokeColor=none;fillColor=none;align=left;verticalAlign=top;spacingLeft=4;spacingRight=4;overflow=hidden;rotatable=0;points=[[0,0.5],[1,0.5]];portConstraint=eastwest;whiteSpace=wrap;html=1;" vertex="1" parent="7fc06WC666pc2ujT6506-14">
          <mxGeometry y="128" width="240" height="26" as="geometry" />
        </mxCell>
        <mxCell id="7fc06WC666pc2ujT6506-26" style="rounded=0;orthogonalLoop=1;jettySize=auto;html=1;endArrow=none;endFill=0;" edge="1" parent="1" source="7fc06WC666pc2ujT6506-18" target="7fc06WC666pc2ujT6506-14">
          <mxGeometry relative="1" as="geometry" />
        </mxCell>
        <mxCell id="7fc06WC666pc2ujT6506-38" style="rounded=0;orthogonalLoop=1;jettySize=auto;html=1;entryX=0.5;entryY=0;entryDx=0;entryDy=0;endArrow=none;endFill=0;" edge="1" parent="1" source="7fc06WC666pc2ujT6506-18" target="7fc06WC666pc2ujT6506-6">
          <mxGeometry relative="1" as="geometry" />
        </mxCell>
        <mxCell id="7fc06WC666pc2ujT6506-18" value="Staff" style="swimlane;fontStyle=1;align=center;verticalAlign=top;childLayout=stackLayout;horizontal=1;startSize=26;horizontalStack=0;resizeParent=1;resizeParentMax=0;resizeLast=0;collapsible=1;marginBottom=0;whiteSpace=wrap;html=1;" vertex="1" parent="1">
          <mxGeometry x="210" y="60" width="380" height="230" as="geometry" />
        </mxCell>
        <mxCell id="7fc06WC666pc2ujT6506-19" value="+ staffID: Integer&lt;div&gt;+ username: String&lt;/div&gt;&lt;div&gt;+ password: String&lt;br&gt;&lt;div&gt;+ staffName: String&lt;/div&gt;&lt;div&gt;+ pendingPackage: List&amp;lt;Package&amp;gt;&lt;/div&gt;&lt;/div&gt;&lt;div&gt;+ unknownPackage: List &amp;lt;Package&amp;gt;&lt;/div&gt;&lt;div&gt;+ retrievePackageHist: List&amp;lt;Record&amp;gt;&lt;/div&gt;" style="text;strokeColor=none;fillColor=none;align=left;verticalAlign=top;spacingLeft=4;spacingRight=4;overflow=hidden;rotatable=0;points=[[0,0.5],[1,0.5]];portConstraint=eastwest;whiteSpace=wrap;html=1;" vertex="1" parent="7fc06WC666pc2ujT6506-18">
          <mxGeometry y="26" width="380" height="114" as="geometry" />
        </mxCell>
        <mxCell id="7fc06WC666pc2ujT6506-20" value="" style="line;strokeWidth=1;fillColor=none;align=left;verticalAlign=middle;spacingTop=-1;spacingLeft=3;spacingRight=3;rotatable=0;labelPosition=right;points=[];portConstraint=eastwest;strokeColor=inherit;" vertex="1" parent="7fc06WC666pc2ujT6506-18">
          <mxGeometry y="140" width="380" height="8" as="geometry" />
        </mxCell>
        <mxCell id="7fc06WC666pc2ujT6506-21" value="+ Login(username: String, password: String): Boolean&lt;div&gt;+ PendingPackage(): List&amp;lt;Package&amp;gt;&lt;/div&gt;&lt;div&gt;+ UnknownPackage(): List&amp;lt;Package&amp;gt;&lt;/div&gt;&lt;div&gt;+ ResidentList(): List&amp;lt;Resident&amp;gt;&lt;/div&gt;&lt;div&gt;+ RetrievePackageHistory(): List&amp;lt;Resident&amp;gt;&lt;/div&gt;" style="text;strokeColor=none;fillColor=none;align=left;verticalAlign=top;spacingLeft=4;spacingRight=4;overflow=hidden;rotatable=0;points=[[0,0.5],[1,0.5]];portConstraint=eastwest;whiteSpace=wrap;html=1;" vertex="1" parent="7fc06WC666pc2ujT6506-18">
          <mxGeometry y="148" width="380" height="82" as="geometry" />
        </mxCell>
        <mxCell id="7fc06WC666pc2ujT6506-22" value="Record" style="swimlane;fontStyle=1;align=center;verticalAlign=top;childLayout=stackLayout;horizontal=1;startSize=26;horizontalStack=0;resizeParent=1;resizeParentMax=0;resizeLast=0;collapsible=1;marginBottom=0;whiteSpace=wrap;html=1;" vertex="1" parent="1">
          <mxGeometry x="250" y="720" width="240" height="164" as="geometry" />
        </mxCell>
        <mxCell id="7fc06WC666pc2ujT6506-23" value="+ recordID: Integer&lt;br&gt;&lt;div&gt;+ ArrivalDate: Date&lt;/div&gt;&lt;div&gt;+ Carrier: String&lt;/div&gt;&lt;div&gt;+ residentAptNum: Integer&lt;/div&gt;&lt;div&gt;+ residentName: String&lt;/div&gt;&lt;div&gt;+ pickupDate: Date&lt;/div&gt;" style="text;strokeColor=none;fillColor=none;align=left;verticalAlign=top;spacingLeft=4;spacingRight=4;overflow=hidden;rotatable=0;points=[[0,0.5],[1,0.5]];portConstraint=eastwest;whiteSpace=wrap;html=1;" vertex="1" parent="7fc06WC666pc2ujT6506-22">
          <mxGeometry y="26" width="240" height="104" as="geometry" />
        </mxCell>
        <mxCell id="7fc06WC666pc2ujT6506-24" value="" style="line;strokeWidth=1;fillColor=none;align=left;verticalAlign=middle;spacingTop=-1;spacingLeft=3;spacingRight=3;rotatable=0;labelPosition=right;points=[];portConstraint=eastwest;strokeColor=inherit;" vertex="1" parent="7fc06WC666pc2ujT6506-22">
          <mxGeometry y="130" width="240" height="8" as="geometry" />
        </mxCell>
        <mxCell id="7fc06WC666pc2ujT6506-25" value="+ PackagePickedup(): List&amp;lt;Record&amp;gt;" style="text;strokeColor=none;fillColor=none;align=left;verticalAlign=top;spacingLeft=4;spacingRight=4;overflow=hidden;rotatable=0;points=[[0,0.5],[1,0.5]];portConstraint=eastwest;whiteSpace=wrap;html=1;" vertex="1" parent="7fc06WC666pc2ujT6506-22">
          <mxGeometry y="138" width="240" height="26" as="geometry" />
        </mxCell>
        <mxCell id="7fc06WC666pc2ujT6506-27" value="1..N" style="text;html=1;align=center;verticalAlign=middle;resizable=0;points=[];autosize=1;strokeColor=none;fillColor=none;" vertex="1" parent="1">
          <mxGeometry x="585" y="398" width="50" height="30" as="geometry" />
        </mxCell>
        <mxCell id="7fc06WC666pc2ujT6506-28" value="1" style="text;html=1;align=center;verticalAlign=middle;resizable=0;points=[];autosize=1;strokeColor=none;fillColor=none;" vertex="1" parent="1">
          <mxGeometry x="510" y="290" width="30" height="30" as="geometry" />
        </mxCell>
        <mxCell id="7fc06WC666pc2ujT6506-29" style="edgeStyle=orthogonalEdgeStyle;rounded=0;orthogonalLoop=1;jettySize=auto;html=1;entryX=0.001;entryY=0.278;entryDx=0;entryDy=0;entryPerimeter=0;endArrow=none;endFill=0;" edge="1" parent="1" source="7fc06WC666pc2ujT6506-6" target="7fc06WC666pc2ujT6506-15">
          <mxGeometry relative="1" as="geometry" />
        </mxCell>
        <mxCell id="7fc06WC666pc2ujT6506-30" value="1" style="text;html=1;align=center;verticalAlign=middle;resizable=0;points=[];autosize=1;strokeColor=none;fillColor=none;" vertex="1" parent="1">
          <mxGeometry x="245" y="448" width="30" height="30" as="geometry" />
        </mxCell>
        <mxCell id="7fc06WC666pc2ujT6506-31" value="1..N" style="text;html=1;align=center;verticalAlign=middle;resizable=0;points=[];autosize=1;strokeColor=none;fillColor=none;" vertex="1" parent="1">
          <mxGeometry x="500" y="448" width="50" height="30" as="geometry" />
        </mxCell>
        <mxCell id="7fc06WC666pc2ujT6506-33" value="1" style="text;html=1;align=center;verticalAlign=middle;resizable=0;points=[];autosize=1;strokeColor=none;fillColor=none;" vertex="1" parent="1">
          <mxGeometry x="485" y="708" width="30" height="30" as="geometry" />
        </mxCell>
        <mxCell id="7fc06WC666pc2ujT6506-34" value="1" style="text;html=1;align=center;verticalAlign=middle;resizable=0;points=[];autosize=1;strokeColor=none;fillColor=none;" vertex="1" parent="1">
          <mxGeometry x="595" y="568" width="30" height="30" as="geometry" />
        </mxCell>
        <mxCell id="7fc06WC666pc2ujT6506-36" value="1..N" style="text;html=1;align=center;verticalAlign=middle;resizable=0;points=[];autosize=1;strokeColor=none;fillColor=none;" vertex="1" parent="1">
          <mxGeometry x="235" y="698" width="50" height="30" as="geometry" />
        </mxCell>
        <mxCell id="7fc06WC666pc2ujT6506-37" value="1" style="text;html=1;align=center;verticalAlign=middle;resizable=0;points=[];autosize=1;strokeColor=none;fillColor=none;" vertex="1" parent="1">
          <mxGeometry x="170" y="540" width="30" height="30" as="geometry" />
        </mxCell>
        <mxCell id="7fc06WC666pc2ujT6506-39" value="1..N" style="text;html=1;align=center;verticalAlign=middle;resizable=0;points=[];autosize=1;strokeColor=none;fillColor=none;" vertex="1" parent="1">
          <mxGeometry x="90" y="380" width="50" height="30" as="geometry" />
        </mxCell>
        <mxCell id="7fc06WC666pc2ujT6506-40" value="1" style="text;html=1;align=center;verticalAlign=middle;resizable=0;points=[];autosize=1;strokeColor=none;fillColor=none;" vertex="1" parent="1">
          <mxGeometry x="275" y="288" width="30" height="30" as="geometry" />
        </mxCell>
      </root>
    </mxGraphModel>
  </diagram>
  <diagram id="ugdMhI9FF5iZ-sD3pd8C" name="Sequence Diagram">
    <mxGraphModel dx="1857" dy="1093" grid="1" gridSize="10" guides="1" tooltips="1" connect="1" arrows="1" fold="1" page="1" pageScale="1" pageWidth="850" pageHeight="1400" math="0" shadow="0">
      <root>
        <mxCell id="0" />
        <mxCell id="1" parent="0" />
        <mxCell id="JVC9U24kmIdAR2JpTYaJ-13" style="rounded=0;orthogonalLoop=1;jettySize=auto;html=1;endArrow=none;endFill=0;dashed=1;" edge="1" parent="1" source="JVC9U24kmIdAR2JpTYaJ-12">
          <mxGeometry relative="1" as="geometry">
            <mxPoint x="690" y="1390.0000000000002" as="targetPoint" />
          </mxGeometry>
        </mxCell>
        <mxCell id="JVC9U24kmIdAR2JpTYaJ-5" style="edgeStyle=orthogonalEdgeStyle;rounded=0;orthogonalLoop=1;jettySize=auto;html=1;endArrow=none;endFill=0;dashed=1;" edge="1" parent="1" source="JVC9U24kmIdAR2JpTYaJ-2">
          <mxGeometry relative="1" as="geometry">
            <mxPoint x="100" y="1390.0000000000002" as="targetPoint" />
            <Array as="points">
              <mxPoint x="95" y="1390" />
            </Array>
          </mxGeometry>
        </mxCell>
        <mxCell id="JVC9U24kmIdAR2JpTYaJ-2" value="Staff" style="shape=umlActor;verticalLabelPosition=bottom;verticalAlign=top;html=1;" vertex="1" parent="1">
          <mxGeometry x="75" y="80" width="40" height="80" as="geometry" />
        </mxCell>
        <mxCell id="JVC9U24kmIdAR2JpTYaJ-1" value="Sequence Diagram" style="text;html=1;align=center;verticalAlign=middle;resizable=0;points=[];autosize=1;strokeColor=none;fillColor=none;" vertex="1" parent="1">
          <mxGeometry x="20" y="20" width="130" height="30" as="geometry" />
        </mxCell>
        <mxCell id="JVC9U24kmIdAR2JpTYaJ-6" value="" style="html=1;points=[[0,0,0,0,5],[0,1,0,0,-5],[1,0,0,0,5],[1,1,0,0,-5]];perimeter=orthogonalPerimeter;outlineConnect=0;targetShapes=umlLifeline;portConstraint=eastwest;newEdgeStyle={&quot;curved&quot;:0,&quot;rounded&quot;:0};" vertex="1" parent="1">
          <mxGeometry x="90" y="210" width="10" height="60" as="geometry" />
        </mxCell>
        <mxCell id="JVC9U24kmIdAR2JpTYaJ-7" value="Login(username, password)" style="html=1;verticalAlign=bottom;endArrow=block;curved=0;rounded=0;entryX=1;entryY=0;entryDx=0;entryDy=5;exitX=0;exitY=0;exitDx=0;exitDy=5;exitPerimeter=0;" edge="1" target="JVC9U24kmIdAR2JpTYaJ-6" parent="1" source="JVC9U24kmIdAR2JpTYaJ-9">
          <mxGeometry relative="1" as="geometry">
            <mxPoint x="170" y="215" as="sourcePoint" />
          </mxGeometry>
        </mxCell>
        <mxCell id="JVC9U24kmIdAR2JpTYaJ-9" value="" style="html=1;points=[[0,0,0,0,5],[0,1,0,0,-5],[1,0,0,0,5],[1,1,0,0,-5]];perimeter=orthogonalPerimeter;outlineConnect=0;targetShapes=umlLifeline;portConstraint=eastwest;newEdgeStyle={&quot;curved&quot;:0,&quot;rounded&quot;:0};" vertex="1" parent="1">
          <mxGeometry x="680" y="210" width="10" height="80" as="geometry" />
        </mxCell>
        <mxCell id="JVC9U24kmIdAR2JpTYaJ-8" value="return False" style="html=1;verticalAlign=bottom;endArrow=none;dashed=1;endSize=8;curved=0;rounded=0;exitX=1;exitY=1;exitDx=0;exitDy=-5;entryX=0;entryY=1;entryDx=0;entryDy=-5;entryPerimeter=0;startArrow=open;startFill=0;startSize=8;endFill=0;" edge="1" parent="1">
          <mxGeometry relative="1" as="geometry">
            <mxPoint x="680" y="360" as="targetPoint" />
            <mxPoint x="100" y="360" as="sourcePoint" />
          </mxGeometry>
        </mxCell>
        <mxCell id="JVC9U24kmIdAR2JpTYaJ-10" value="Opt" style="shape=umlFrame;whiteSpace=wrap;html=1;pointerEvents=0;" vertex="1" parent="1">
          <mxGeometry x="40" y="240" width="750" height="140" as="geometry" />
        </mxCell>
        <mxCell id="JVC9U24kmIdAR2JpTYaJ-12" value="" style="shape=message;html=1;html=1;outlineConnect=0;labelPosition=center;verticalLabelPosition=bottom;align=center;verticalAlign=top;" vertex="1" parent="1">
          <mxGeometry x="655" y="100" width="60" height="40" as="geometry" />
        </mxCell>
        <mxCell id="JVC9U24kmIdAR2JpTYaJ-14" value="Login Failed" style="text;html=1;align=center;verticalAlign=middle;resizable=0;points=[];autosize=1;strokeColor=none;fillColor=none;" vertex="1" parent="1">
          <mxGeometry x="150" y="240" width="90" height="30" as="geometry" />
        </mxCell>
        <mxCell id="JVC9U24kmIdAR2JpTYaJ-16" value="" style="html=1;points=[[0,0,0,0,5],[0,1,0,0,-5],[1,0,0,0,5],[1,1,0,0,-5]];perimeter=orthogonalPerimeter;outlineConnect=0;targetShapes=umlLifeline;portConstraint=eastwest;newEdgeStyle={&quot;curved&quot;:0,&quot;rounded&quot;:0};" vertex="1" parent="1">
          <mxGeometry x="680" y="330" width="10" height="40" as="geometry" />
        </mxCell>
        <mxCell id="JVC9U24kmIdAR2JpTYaJ-17" value="ShowError()" style="html=1;align=left;spacingLeft=2;endArrow=block;rounded=0;edgeStyle=orthogonalEdgeStyle;curved=0;rounded=0;" edge="1" target="JVC9U24kmIdAR2JpTYaJ-16" parent="1">
          <mxGeometry relative="1" as="geometry">
            <mxPoint x="685" y="310" as="sourcePoint" />
            <Array as="points">
              <mxPoint x="715" y="340" />
            </Array>
          </mxGeometry>
        </mxCell>
        <mxCell id="JVC9U24kmIdAR2JpTYaJ-18" value="Opt" style="shape=umlFrame;whiteSpace=wrap;html=1;pointerEvents=0;" vertex="1" parent="1">
          <mxGeometry x="40" y="400" width="750" height="760" as="geometry" />
        </mxCell>
        <mxCell id="JVC9U24kmIdAR2JpTYaJ-19" value="Login Successful" style="text;html=1;align=center;verticalAlign=middle;resizable=0;points=[];autosize=1;strokeColor=none;fillColor=none;" vertex="1" parent="1">
          <mxGeometry x="140" y="400" width="110" height="30" as="geometry" />
        </mxCell>
        <mxCell id="JVC9U24kmIdAR2JpTYaJ-20" value="return True" style="html=1;verticalAlign=bottom;endArrow=none;dashed=1;endSize=8;curved=0;rounded=0;exitX=1;exitY=1;exitDx=0;exitDy=-5;entryX=0;entryY=1;entryDx=0;entryDy=-5;entryPerimeter=0;startArrow=open;startFill=0;startSize=8;endFill=0;" edge="1" parent="1">
          <mxGeometry relative="1" as="geometry">
            <mxPoint x="680" y="460" as="targetPoint" />
            <mxPoint x="100" y="460" as="sourcePoint" />
          </mxGeometry>
        </mxCell>
        <mxCell id="JVC9U24kmIdAR2JpTYaJ-21" value="New Package" style="shape=umlFrame;whiteSpace=wrap;html=1;pointerEvents=0;width=100;height=30;" vertex="1" parent="1">
          <mxGeometry x="60" y="480" width="710" height="310" as="geometry" />
        </mxCell>
        <mxCell id="8I2Txhc1UDwO5nUn1Y7G-2" value="" style="html=1;points=[[0,0,0,0,5],[0,1,0,0,-5],[1,0,0,0,5],[1,1,0,0,-5]];perimeter=orthogonalPerimeter;outlineConnect=0;targetShapes=umlLifeline;portConstraint=eastwest;newEdgeStyle={&quot;curved&quot;:0,&quot;rounded&quot;:0};" vertex="1" parent="1">
          <mxGeometry x="90" y="530" width="10" height="60" as="geometry" />
        </mxCell>
        <mxCell id="8I2Txhc1UDwO5nUn1Y7G-3" value="PendingPackage(ResidentApartmentNum, Name)" style="html=1;verticalAlign=bottom;endArrow=none;curved=0;rounded=0;entryX=1;entryY=0;entryDx=0;entryDy=5;endFill=0;startArrow=block;startFill=1;" edge="1" target="8I2Txhc1UDwO5nUn1Y7G-2" parent="1" source="8I2Txhc1UDwO5nUn1Y7G-5">
          <mxGeometry relative="1" as="geometry">
            <mxPoint x="170" y="535" as="sourcePoint" />
          </mxGeometry>
        </mxCell>
        <mxCell id="8I2Txhc1UDwO5nUn1Y7G-4" value="return" style="html=1;verticalAlign=bottom;endArrow=none;dashed=1;endSize=8;curved=0;rounded=0;exitX=1;exitY=1;exitDx=0;exitDy=-5;endFill=0;startArrow=open;startFill=0;" edge="1" source="8I2Txhc1UDwO5nUn1Y7G-2" parent="1" target="8I2Txhc1UDwO5nUn1Y7G-5">
          <mxGeometry relative="1" as="geometry">
            <mxPoint x="170" y="605" as="targetPoint" />
          </mxGeometry>
        </mxCell>
        <mxCell id="8I2Txhc1UDwO5nUn1Y7G-5" value="" style="html=1;points=[[0,0,0,0,5],[0,1,0,0,-5],[1,0,0,0,5],[1,1,0,0,-5]];perimeter=orthogonalPerimeter;outlineConnect=0;targetShapes=umlLifeline;portConstraint=eastwest;newEdgeStyle={&quot;curved&quot;:0,&quot;rounded&quot;:0};" vertex="1" parent="1">
          <mxGeometry x="680" y="530" width="10" height="60" as="geometry" />
        </mxCell>
        <mxCell id="LzQGZAMhLE32gjCa51fa-1" value="" style="html=1;points=[[0,0,0,0,5],[0,1,0,0,-5],[1,0,0,0,5],[1,1,0,0,-5]];perimeter=orthogonalPerimeter;outlineConnect=0;targetShapes=umlLifeline;portConstraint=eastwest;newEdgeStyle={&quot;curved&quot;:0,&quot;rounded&quot;:0};" vertex="1" parent="1">
          <mxGeometry x="90" y="620" width="10" height="60" as="geometry" />
        </mxCell>
        <mxCell id="LzQGZAMhLE32gjCa51fa-2" value="UnknownPackage(ArrivedDate, Carrier)" style="html=1;verticalAlign=bottom;endArrow=none;curved=0;rounded=0;entryX=1;entryY=0;entryDx=0;entryDy=5;endFill=0;startArrow=block;startFill=1;" edge="1" parent="1" source="LzQGZAMhLE32gjCa51fa-4" target="LzQGZAMhLE32gjCa51fa-1">
          <mxGeometry relative="1" as="geometry">
            <mxPoint x="170" y="625" as="sourcePoint" />
          </mxGeometry>
        </mxCell>
        <mxCell id="LzQGZAMhLE32gjCa51fa-3" value="return" style="html=1;verticalAlign=bottom;endArrow=none;dashed=1;endSize=8;curved=0;rounded=0;exitX=1;exitY=1;exitDx=0;exitDy=-5;endFill=0;startArrow=open;startFill=0;" edge="1" parent="1" source="LzQGZAMhLE32gjCa51fa-1" target="LzQGZAMhLE32gjCa51fa-4">
          <mxGeometry relative="1" as="geometry">
            <mxPoint x="170" y="695" as="targetPoint" />
          </mxGeometry>
        </mxCell>
        <mxCell id="LzQGZAMhLE32gjCa51fa-4" value="" style="html=1;points=[[0,0,0,0,5],[0,1,0,0,-5],[1,0,0,0,5],[1,1,0,0,-5]];perimeter=orthogonalPerimeter;outlineConnect=0;targetShapes=umlLifeline;portConstraint=eastwest;newEdgeStyle={&quot;curved&quot;:0,&quot;rounded&quot;:0};" vertex="1" parent="1">
          <mxGeometry x="680" y="620" width="10" height="60" as="geometry" />
        </mxCell>
        <mxCell id="s8CoFFvYEmNdaZIwGWkL-1" value="" style="html=1;points=[[0,0,0,0,5],[0,1,0,0,-5],[1,0,0,0,5],[1,1,0,0,-5]];perimeter=orthogonalPerimeter;outlineConnect=0;targetShapes=umlLifeline;portConstraint=eastwest;newEdgeStyle={&quot;curved&quot;:0,&quot;rounded&quot;:0};" vertex="1" parent="1">
          <mxGeometry x="90" y="700" width="10" height="60" as="geometry" />
        </mxCell>
        <mxCell id="s8CoFFvYEmNdaZIwGWkL-2" value="EmailNotifcation(ResidentEmail)" style="html=1;verticalAlign=bottom;endArrow=none;curved=0;rounded=0;entryX=1;entryY=0;entryDx=0;entryDy=5;endFill=0;startArrow=block;startFill=1;" edge="1" parent="1" source="s8CoFFvYEmNdaZIwGWkL-4" target="s8CoFFvYEmNdaZIwGWkL-1">
          <mxGeometry relative="1" as="geometry">
            <mxPoint x="170" y="705" as="sourcePoint" />
          </mxGeometry>
        </mxCell>
        <mxCell id="s8CoFFvYEmNdaZIwGWkL-3" value="return True" style="html=1;verticalAlign=bottom;endArrow=none;dashed=1;endSize=8;curved=0;rounded=0;exitX=1;exitY=1;exitDx=0;exitDy=-5;endFill=0;startArrow=open;startFill=0;" edge="1" parent="1" source="s8CoFFvYEmNdaZIwGWkL-1" target="s8CoFFvYEmNdaZIwGWkL-4">
          <mxGeometry relative="1" as="geometry">
            <mxPoint x="170" y="775" as="targetPoint" />
          </mxGeometry>
        </mxCell>
        <mxCell id="s8CoFFvYEmNdaZIwGWkL-4" value="" style="html=1;points=[[0,0,0,0,5],[0,1,0,0,-5],[1,0,0,0,5],[1,1,0,0,-5]];perimeter=orthogonalPerimeter;outlineConnect=0;targetShapes=umlLifeline;portConstraint=eastwest;newEdgeStyle={&quot;curved&quot;:0,&quot;rounded&quot;:0};" vertex="1" parent="1">
          <mxGeometry x="680" y="700" width="10" height="60" as="geometry" />
        </mxCell>
        <mxCell id="we1JTIIW-e3n4ut2ubmx-2" value="Retrieve Resident History" style="shape=umlFrame;whiteSpace=wrap;html=1;pointerEvents=0;width=120;height=30;" vertex="1" parent="1">
          <mxGeometry x="60" y="990" width="710" height="140" as="geometry" />
        </mxCell>
        <mxCell id="we1JTIIW-e3n4ut2ubmx-3" value="" style="html=1;points=[[0,0,0,0,5],[0,1,0,0,-5],[1,0,0,0,5],[1,1,0,0,-5]];perimeter=orthogonalPerimeter;outlineConnect=0;targetShapes=umlLifeline;portConstraint=eastwest;newEdgeStyle={&quot;curved&quot;:0,&quot;rounded&quot;:0};" vertex="1" parent="1">
          <mxGeometry x="90" y="1030" width="10" height="60" as="geometry" />
        </mxCell>
        <mxCell id="we1JTIIW-e3n4ut2ubmx-4" value="RetrievePackageHistory(ResidentName, ResidentApartmentNum)" style="html=1;verticalAlign=bottom;endArrow=none;curved=0;rounded=0;entryX=1;entryY=0;entryDx=0;entryDy=5;endFill=0;startArrow=block;startFill=1;" edge="1" parent="1" source="we1JTIIW-e3n4ut2ubmx-6" target="we1JTIIW-e3n4ut2ubmx-3">
          <mxGeometry relative="1" as="geometry">
            <mxPoint x="170" y="1035" as="sourcePoint" />
          </mxGeometry>
        </mxCell>
        <mxCell id="we1JTIIW-e3n4ut2ubmx-5" value="return" style="html=1;verticalAlign=bottom;endArrow=none;dashed=1;endSize=8;curved=0;rounded=0;exitX=1;exitY=1;exitDx=0;exitDy=-5;endFill=0;startArrow=open;startFill=0;" edge="1" parent="1" source="we1JTIIW-e3n4ut2ubmx-3" target="we1JTIIW-e3n4ut2ubmx-6">
          <mxGeometry relative="1" as="geometry">
            <mxPoint x="170" y="1105" as="targetPoint" />
          </mxGeometry>
        </mxCell>
        <mxCell id="we1JTIIW-e3n4ut2ubmx-6" value="" style="html=1;points=[[0,0,0,0,5],[0,1,0,0,-5],[1,0,0,0,5],[1,1,0,0,-5]];perimeter=orthogonalPerimeter;outlineConnect=0;targetShapes=umlLifeline;portConstraint=eastwest;newEdgeStyle={&quot;curved&quot;:0,&quot;rounded&quot;:0};" vertex="1" parent="1">
          <mxGeometry x="680" y="1030" width="10" height="60" as="geometry" />
        </mxCell>
        <mxCell id="IKWOkFcvz1nIN_4htfT_-1" value="Package Picked Up" style="shape=umlFrame;whiteSpace=wrap;html=1;pointerEvents=0;width=120;height=30;" vertex="1" parent="1">
          <mxGeometry x="60" y="820" width="710" height="140" as="geometry" />
        </mxCell>
        <mxCell id="IKWOkFcvz1nIN_4htfT_-2" value="" style="html=1;points=[[0,0,0,0,5],[0,1,0,0,-5],[1,0,0,0,5],[1,1,0,0,-5]];perimeter=orthogonalPerimeter;outlineConnect=0;targetShapes=umlLifeline;portConstraint=eastwest;newEdgeStyle={&quot;curved&quot;:0,&quot;rounded&quot;:0};" vertex="1" parent="1">
          <mxGeometry x="90" y="870" width="10" height="60" as="geometry" />
        </mxCell>
        <mxCell id="IKWOkFcvz1nIN_4htfT_-3" value="PackagePickedUp(ResidentName, PickedUpDate)" style="html=1;verticalAlign=bottom;endArrow=none;curved=0;rounded=0;entryX=1;entryY=0;entryDx=0;entryDy=5;endFill=0;startArrow=block;startFill=1;" edge="1" parent="1" source="IKWOkFcvz1nIN_4htfT_-5" target="IKWOkFcvz1nIN_4htfT_-2">
          <mxGeometry relative="1" as="geometry">
            <mxPoint x="170" y="875" as="sourcePoint" />
          </mxGeometry>
        </mxCell>
        <mxCell id="IKWOkFcvz1nIN_4htfT_-4" value="return" style="html=1;verticalAlign=bottom;endArrow=none;dashed=1;endSize=8;curved=0;rounded=0;exitX=1;exitY=1;exitDx=0;exitDy=-5;endFill=0;startArrow=open;startFill=0;" edge="1" parent="1" source="IKWOkFcvz1nIN_4htfT_-2" target="IKWOkFcvz1nIN_4htfT_-5">
          <mxGeometry relative="1" as="geometry">
            <mxPoint x="170" y="945" as="targetPoint" />
          </mxGeometry>
        </mxCell>
        <mxCell id="IKWOkFcvz1nIN_4htfT_-5" value="" style="html=1;points=[[0,0,0,0,5],[0,1,0,0,-5],[1,0,0,0,5],[1,1,0,0,-5]];perimeter=orthogonalPerimeter;outlineConnect=0;targetShapes=umlLifeline;portConstraint=eastwest;newEdgeStyle={&quot;curved&quot;:0,&quot;rounded&quot;:0};" vertex="1" parent="1">
          <mxGeometry x="680" y="870" width="10" height="60" as="geometry" />
        </mxCell>
        <mxCell id="IKWOkFcvz1nIN_4htfT_-6" value="Mail Room" style="text;html=1;align=center;verticalAlign=middle;resizable=0;points=[];autosize=1;strokeColor=none;fillColor=none;" vertex="1" parent="1">
          <mxGeometry x="645" y="140" width="80" height="30" as="geometry" />
        </mxCell>
      </root>
    </mxGraphModel>
  </diagram>
</mxfile>
